# Blender v2.80 (sub 75) OBJ File: 'TilesNew.blend'
# www.blender.org
mtllib Stair2.mtl
o Stair2_Cube.001
v -0.499995 -0.500010 0.500000
v -0.500000 0.000000 0.500000
v 0.499978 -0.500010 -0.500000
v -0.500000 0.000000 -0.500000
v 0.500000 -1.000000 0.500000
v -0.499983 -0.499996 0.500000
v 0.500000 -1.000000 -0.500000
v 0.499990 -0.499996 -0.500000
v -0.000008 -0.500010 0.000000
v -0.500000 -0.500000 0.500000
v -0.500000 0.000000 0.000000
v -0.500000 -0.500000 -0.500000
v 0.499986 -1.000000 -0.500000
v 0.499986 0.000000 -0.500000
v 0.500000 -0.500000 -0.500000
v 0.500000 -1.000000 0.000000
v 0.000004 -0.499996 -0.000000
v 0.500000 -0.500000 0.500000
v -0.499987 -1.000000 0.500000
v -0.499987 0.000000 0.500000
v 0.000000 0.000000 0.000000
v 0.000000 -1.000000 0.000000
v -0.499987 -0.500000 0.500000
v 0.500000 -0.500000 0.000000
v 0.499986 -0.500000 -0.500000
v -0.500000 -0.500000 0.000000
vt 0.500000 -0.500000
vt 0.500000 -0.000599
vt 0.000599 -0.000599
vt 0.000599 -0.500000
vt 1.500000 -0.500000
vt 1.500000 -0.999400
vt 1.500216 -0.500000
vt 1.999401 -0.500000
vt 1.000008 0.499488
vt 0.500608 0.499488
vt -0.020258 0.000087
vt 1.000008 0.000087
vt -0.500000 0.500000
vt -0.999400 0.500000
vt -0.999400 0.000599
vt -0.500000 0.000599
vt -0.500000 -0.500000
vt -0.000599 -0.500000
vt -0.000599 -0.000599
vt -0.500000 -0.000599
vt 0.500000 0.500000
vt 0.000599 0.500000
vt 0.000599 0.000599
vt 0.500000 0.000599
vt 0.735867 0.496900
vt 0.236467 0.496900
vt 0.236467 0.000599
vt 0.735867 0.000599
vt 0.735867 0.999401
vt 0.236467 0.999401
vt 0.989862 0.999401
vt 0.000599 0.999401
vt -0.999400 -0.500000
vt -0.500000 0.235031
vt -0.999401 0.235030
vt -0.999400 -0.999400
vt -0.500000 -0.999400
vt -0.500000 -0.251969
vt -0.999400 -0.251969
vt -0.000599 -0.999401
vt -0.000599 0.500000
vt -0.000599 0.000599
vt -0.000599 0.999401
vt -0.500000 0.999401
vt -0.500000 -0.002264
vt -0.000599 -0.002264
vt -0.999401 0.999401
vt -0.000599 1.500000
vt -0.500000 1.500000
vt -0.500000 1.000599
vt -0.000599 1.000599
vt -0.000599 1.999401
vt -0.500000 1.999400
vt 1.000008 0.998889
vt 0.500608 0.998889
vt 1.500000 -0.000599
vt 1.999401 -0.000599
vt 1.000599 -0.000599
vt 1.000599 -0.500000
vt 0.541741 -0.500000
vt 0.541741 -0.999401
vt 0.500000 -0.999400
vt 0.000599 -0.999401
vt 0.999401 -0.999400
vt 0.999401 -0.500000
vt 0.999401 -0.000599
vn -1.0000 0.0000 0.0000
vn 0.0000 -0.0000 -1.0000
vn 0.0000 1.0000 0.0000
vn 0.0000 0.0000 1.0000
vn 0.0000 -1.0000 0.0000
vn 0.7071 0.0000 0.7071
vn -0.7071 -0.0000 -0.7071
vn 0.0051 0.0102 0.9999
vn 1.0000 0.0000 0.0000
vn -0.0021 -0.0043 -1.0000
usemtl Material.001
s off
f 26/1/1 11/2/1 4/3/1 12/4/1
f 25/5/2 14/6/2 8/7/2 15/8/2
f 24/9/3 17/10/3 6/11/3 18/12/3
f 23/13/4 20/14/4 2/15/4 10/16/4
f 22/17/5 16/18/5 5/19/5 19/20/5
f 21/21/3 11/22/3 2/23/3 20/24/3
f 17/25/6 21/26/6 20/27/6 6/28/6
f 8/29/6 14/30/6 21/26/6 17/25/6
f 14/31/3 4/32/3 11/22/3 21/21/3
f 9/33/7 22/17/7 19/34/7 1/35/7
f 3/36/7 13/37/7 22/38/7 9/39/7
f 13/37/5 7/40/5 16/18/5 22/17/5
f 19/41/4 23/13/4 10/16/4 1/42/4
f 5/43/4 18/44/4 23/45/4 19/46/4
f 18/44/8 6/47/8 20/14/8 23/13/8
f 16/48/9 24/49/9 18/50/9 5/51/9
f 7/52/9 15/53/9 24/49/9 16/48/9
f 15/54/3 8/55/3 17/10/3 24/9/3
f 13/56/2 25/5/2 15/8/2 7/57/2
f 3/58/10 12/59/10 25/5/10 13/56/10
f 12/60/2 4/61/2 14/6/2 25/5/2
f 9/62/5 26/1/5 12/4/5 3/63/5
f 1/64/5 10/65/5 26/1/5 9/62/5
f 10/65/1 2/66/1 11/2/1 26/1/1
