# Blender v2.80 (sub 75) OBJ File: 'TilesNew.blend'
# www.blender.org
mtllib stone.mtl
o 5_stone
v -0.500000 -0.500000 0.500000
v -0.500000 0.499999 0.500000
v -0.500000 -0.500000 -0.500000
v -0.500000 -0.500001 -0.500000
v 0.500000 -0.500000 0.500000
v 0.500000 -0.500001 0.500000
v 0.500000 -0.500000 -0.500000
v 0.500000 -0.500001 -0.500000
v -0.500000 -0.500000 0.000000
v -0.500000 -0.000001 0.500000
v -0.500000 -0.000001 0.000000
v -0.500000 -0.500001 -0.500000
v 0.000000 -0.500000 -0.500000
v 0.000000 -0.500001 -0.500000
v 0.500000 -0.500001 -0.500000
v 0.500000 -0.500000 0.000000
v 0.500000 -0.500001 0.000000
v 0.500000 -0.500001 0.500000
v 0.000000 -0.500000 0.500000
v 0.000000 -0.000001 0.500000
v 0.000000 -0.000001 0.000000
v 0.000000 -0.500000 0.000000
v 0.000000 -0.500001 0.500000
v 0.500000 -0.500001 0.000000
v 0.000000 -0.500001 -0.500000
v -0.500000 -0.500001 0.000000
vt 0.500000 -0.500000
vt 0.500000 -0.000599
vt 0.000599 -0.000599
vt 0.000599 -0.500000
vt 1.500000 -0.500000
vt 1.500000 -0.999400
vt 1.999401 -0.999400
vt 1.999401 -0.500000
vt -0.500000 1.500000
vt -0.999400 1.500000
vt -0.999400 1.000599
vt -0.500000 1.000599
vt -0.500000 0.500000
vt -0.999400 0.500000
vt -0.999400 0.000599
vt -0.500000 0.000599
vt -0.500000 -0.500000
vt -0.000599 -0.500000
vt -0.000599 -0.000599
vt -0.500000 -0.000599
vt 0.500000 0.500000
vt 0.000599 0.500000
vt 0.000599 0.000599
vt 0.500000 0.000599
vt 0.999401 0.500000
vt 0.999401 0.000599
vt 0.999401 0.999401
vt 0.500000 0.999401
vt 0.000599 0.999401
vt -0.999400 -0.500000
vt -0.999401 -0.000599
vt -0.999400 -0.999401
vt -0.500000 -0.999401
vt -0.000599 -0.999401
vt -0.000599 0.500000
vt -0.000599 0.000599
vt -0.000599 0.999401
vt -0.500000 0.999401
vt -0.999401 0.999401
vt -0.000599 1.500000
vt -0.000599 1.000599
vt -0.000599 1.999401
vt -0.500000 1.999400
vt -0.999401 1.999400
vt 1.500000 -0.000599
vt 1.999401 -0.000599
vt 1.000599 -0.000599
vt 1.000599 -0.500000
vt 1.000599 -0.999401
vt 0.500000 -0.999400
vt 0.000599 -0.999401
vt 0.999401 -0.999400
vt 0.999401 -0.500000
vt 0.999401 -0.000599
vn -1.0000 0.0000 0.0000
vn 0.0000 0.0000 1.0000
vn 0.0000 -1.0000 0.0000
vn 0.4082 0.8165 -0.4082
vn 0.7071 0.7071 0.0000
vn 0.0000 0.7071 -0.7071
vn 0.0000 0.0000 -1.0000
vn 1.0000 0.0000 0.0000
usemtl Material.001
s off
f 26/1/1 11/2/1 4/3/1 12/4/1
f 25/5/2 14/6/2 8/7/2 15/8/2
f 24/9/2 17/10/2 6/11/2 18/12/2
f 23/13/2 20/14/2 2/15/2 10/16/2
f 22/17/3 16/18/3 5/19/3 19/20/3
f 21/21/4 11/22/4 2/23/4 20/24/4
f 17/25/5 21/21/5 20/24/5 6/26/5
f 8/27/4 14/28/4 21/21/4 17/25/4
f 14/28/6 4/29/6 11/22/6 21/21/6
f 9/30/3 22/17/3 19/20/3 1/31/3
f 3/32/3 13/33/3 22/17/3 9/30/3
f 13/33/3 7/34/3 16/18/3 22/17/3
f 19/35/2 23/13/2 10/16/2 1/36/2
f 5/37/7 18/38/7 23/13/7 19/35/7
f 18/38/2 6/39/2 20/14/2 23/13/2
f 16/40/1 24/9/1 18/12/1 5/41/1
f 7/42/1 15/43/1 24/9/1 16/40/1
f 15/43/2 8/44/2 17/10/2 24/9/2
f 13/45/2 25/5/2 15/8/2 7/46/2
f 3/47/2 12/48/2 25/5/2 13/45/2
f 12/48/2 4/49/2 14/6/2 25/5/2
f 9/50/8 26/1/8 12/4/8 3/51/8
f 1/52/1 10/53/1 26/1/1 9/50/1
f 10/53/1 2/54/1 11/2/1 26/1/1
