# Blender v2.80 (sub 75) OBJ File: 'TilesNew.blend'
# www.blender.org
mtllib stone.mtl
o 9_stone
v -0.000008 -0.500010 0.500000
v -0.500000 0.000000 0.500000
v -0.000008 -0.500010 -0.500000
v -0.500000 0.000000 -0.500000
v 0.500000 -1.000000 0.500000
v 0.000004 -0.499996 0.500000
v 0.500000 -1.000000 -0.500000
v 0.000004 -0.499996 -0.500000
v -0.000008 -0.500010 0.000000
v -0.500000 -0.500000 0.500000
v -0.500000 0.000000 0.000000
v -0.500000 -0.500000 -0.500000
v 0.000000 -1.000000 -0.500000
v 0.000000 0.000000 -0.500000
v 0.500000 -0.500000 -0.500000
v 0.500000 -1.000000 0.000000
v 0.000004 -0.499996 -0.000000
v 0.500000 -0.500000 0.500000
v 0.000000 -1.000000 0.500000
v 0.000000 0.000000 0.500000
v 0.000000 0.000000 0.000000
v 0.000000 -1.000000 0.000000
v 0.000000 -0.500000 0.500000
v 0.500000 -0.500000 0.000000
v 0.000000 -0.500000 -0.500000
v -0.500000 -0.500000 0.000000
vt 0.500000 -0.000599
vt 0.000599 -0.500000
vt 0.500000 -0.500000
vt 1.500000 -0.500000
vt 1.999401 -0.999400
vt 1.999401 -0.500000
vt -0.491588 1.500000
vt 0.007813 1.000599
vt 0.007813 1.500000
vt -0.999400 0.500000
vt -0.500000 0.000599
vt -0.500000 0.500000
vt -0.000599 -0.500000
vt -0.500000 -0.000599
vt -0.500000 -0.500000
vt 0.000599 0.500000
vt 0.500000 0.000599
vt 0.500000 0.500000
vt 0.239567 0.500000
vt 0.738968 0.000599
vt 0.738968 0.500000
vt 0.239567 0.999401
vt 0.738968 0.999401
vt 0.000599 0.999401
vt 0.500000 0.999401
vt -0.999401 -0.000599
vt -0.999400 -0.500000
vt -0.500000 -0.999401
vt -0.999400 -0.999401
vt -0.000599 -0.999401
vt -0.000599 0.000599
vt -0.000599 0.500000
vt -0.500000 0.999401
vt -0.000599 0.999401
vt -0.999401 0.999401
vt -0.500000 1.500000
vt -0.000599 1.000599
vt -0.000599 1.500000
vt -0.500000 1.999400
vt -0.000599 1.999401
vt -0.491588 1.999400
vt 0.007813 1.999400
vt 1.999401 -0.000599
vt 1.500000 -0.000599
vt 1.000599 -0.000599
vt 1.000599 -0.999401
vt 1.000599 -0.500000
vt 0.000599 -0.999401
vt 0.500000 -0.999400
vt 0.999401 -0.500000
vt 0.999401 -0.999400
vt 0.999401 -0.000599
vt 0.000599 -0.000599
vt 1.500000 -0.999400
vt -0.491588 1.000599
vt -0.999400 0.000599
vt -0.000599 -0.000599
vt 0.000599 0.000599
vt 0.239567 0.000599
vt -0.500000 1.000599
vn -1.0000 0.0000 0.0000
vn 0.0000 -0.0161 -0.9999
vn 0.0000 1.0000 0.0000
vn 0.0000 0.0000 1.0000
vn 0.0000 -1.0000 0.0000
vn 1.0000 0.0000 0.0000
vn 0.0000 0.0161 0.9999
vn 0.0000 0.0000 -1.0000
vn -0.0078 0.0000 -1.0000
vn 0.0000 0.0058 1.0000
vn 0.0142 0.0000 0.9999
vn 0.0000 -0.0058 -1.0000
usemtl Material.001
s off
f 11/1/1 12/2/1 26/3/1
f 25/4/2 8/5/2 15/6/2
f 17/7/3 18/8/3 24/9/3
f 20/10/4 10/11/4 23/12/4
f 16/13/5 19/14/5 22/15/5
f 11/16/3 20/17/3 21/18/3
f 21/19/6 6/20/6 17/21/6
f 14/22/6 17/21/6 8/23/6
f 4/24/3 21/18/3 14/25/3
f 22/15/1 1/26/1 9/27/1
f 13/28/1 9/27/1 3/29/1
f 7/30/5 22/15/5 13/28/5
f 23/12/4 1/31/4 19/32/4
f 18/33/4 19/32/4 5/34/4
f 6/35/7 23/12/7 18/33/7
f 24/36/6 5/37/6 16/38/6
f 15/39/6 16/38/6 7/40/6
f 8/41/3 24/9/3 15/42/3
f 25/4/8 7/43/8 13/44/8
f 3/45/9 25/4/9 13/44/9
f 4/46/8 25/4/8 12/47/8
f 26/3/5 3/48/5 9/49/5
f 10/50/5 9/49/5 1/51/5
f 2/52/1 26/3/1 10/50/1
f 11/1/1 4/53/1 12/2/1
f 25/4/8 14/54/8 8/5/8
f 17/7/3 6/55/3 18/8/3
f 20/10/4 2/56/4 10/11/4
f 16/13/5 5/57/5 19/14/5
f 11/16/3 2/58/3 20/17/3
f 21/19/6 20/59/6 6/20/6
f 14/22/6 21/19/6 17/21/6
f 4/24/3 11/16/3 21/18/3
f 22/15/1 19/14/1 1/26/1
f 13/28/1 22/15/1 9/27/1
f 7/30/5 16/13/5 22/15/5
f 23/12/10 10/11/10 1/31/10
f 18/33/4 23/12/4 19/32/4
f 6/35/11 20/10/11 23/12/11
f 24/36/6 18/60/6 5/37/6
f 15/39/6 24/36/6 16/38/6
f 8/41/3 17/7/3 24/9/3
f 25/4/8 15/6/8 7/43/8
f 3/45/12 12/47/12 25/4/12
f 4/46/8 14/54/8 25/4/8
f 26/3/5 12/2/5 3/48/5
f 10/50/5 26/3/5 9/49/5
f 2/52/1 11/1/1 26/3/1
