# Blender v2.82 (sub 7) OBJ File: 'TilesNew.blend'
# www.blender.org
mtllib grass.mtl
o 12_grass
v -0.500000 -0.500000 0.500000
v -0.500000 -0.000001 0.500000
v -0.500000 -0.500000 -0.500000
v -0.500000 -0.000001 -0.500000
v 0.500000 -0.500000 0.500000
v 0.500000 -0.000001 0.500000
v 0.500000 -0.500000 -0.500000
v 0.500000 0.499999 -0.500000
v -0.500000 -0.500000 0.000000
v -0.500000 -0.500001 0.500000
v -0.500000 -0.000001 0.000000
v -0.500000 -0.000001 -0.500000
v 0.000000 -0.500000 -0.500000
v 0.000000 -0.000001 -0.500000
v 0.500000 -0.000001 -0.500000
v 0.500000 -0.500000 0.000000
v 0.500000 -0.000001 0.000000
v 0.500000 -0.000001 0.500000
v 0.000000 -0.500000 0.500000
v 0.000000 -0.000001 0.500000
v 0.000000 -0.000001 0.000000
v 0.000000 -0.500000 0.000000
v 0.000000 -0.500001 0.500000
v 0.500000 -0.000001 0.000000
v 0.000000 -0.000001 -0.500000
v -0.500000 -0.500001 0.000000
vt 0.500000 -0.500000
vt 0.500000 -0.000599
vt 0.000599 -0.000599
vt 0.000599 -0.500000
vt 1.500000 -0.500000
vt 1.500000 -0.999400
vt 1.999401 -0.999400
vt 1.999401 -0.500000
vt -0.500000 1.500000
vt -0.999400 1.500000
vt -0.999400 1.000599
vt -0.500000 1.000599
vt -0.500000 0.500000
vt -0.999400 0.500000
vt -0.999400 0.000599
vt -0.500000 0.000599
vt -0.500000 -0.500000
vt -0.000599 -0.500000
vt -0.000599 -0.000599
vt -0.500000 -0.000599
vt 0.500000 0.500000
vt 0.000599 0.500000
vt 0.000599 0.000599
vt 0.500000 0.000599
vt 0.999401 0.500000
vt 0.999401 0.000599
vt 0.999401 0.999401
vt 0.500000 0.999401
vt 0.000599 0.999401
vt -0.999400 -0.500000
vt -0.999401 -0.000599
vt -0.999400 -0.999401
vt -0.500000 -0.999401
vt -0.000599 -0.999401
vt -0.000599 0.500000
vt -0.000599 0.000599
vt -0.000599 0.999401
vt -0.500000 0.999401
vt -0.999401 0.999401
vt -0.000599 1.500000
vt -0.000599 1.000599
vt -0.000599 1.999401
vt -0.500000 1.999400
vt -0.999401 1.999400
vt 1.500000 -0.000599
vt 1.999401 -0.000599
vt 1.000599 -0.000599
vt 1.000599 -0.500000
vt 1.000599 -0.999401
vt 0.500000 -0.999400
vt 0.000599 -0.999401
vt 0.999401 -0.999400
vt 0.999401 -0.500000
vt 0.999401 -0.000599
vn -1.0000 0.0000 0.0000
vn 0.0000 0.0000 -1.0000
vn 0.0000 0.0000 1.0000
vn 0.0000 -1.0000 0.0000
vn 0.0000 1.0000 0.0000
vn -0.4082 0.8165 0.4082
vn 1.0000 0.0000 0.0000
usemtl Material.001
s off
f 26/1/1 11/2/1 4/3/1 12/4/1
f 25/5/2 14/6/2 8/7/2 15/8/2
f 24/9/3 17/10/3 6/11/3 18/12/3
f 23/13/3 20/14/3 2/15/3 10/16/3
f 22/17/4 16/18/4 5/19/4 19/20/4
f 21/21/5 11/22/5 2/23/5 20/24/5
f 17/25/5 21/21/5 20/24/5 6/26/5
f 8/27/6 14/28/6 21/21/6 17/25/6
f 14/28/5 4/29/5 11/22/5 21/21/5
f 9/30/4 22/17/4 19/20/4 1/31/4
f 3/32/4 13/33/4 22/17/4 9/30/4
f 13/33/4 7/34/4 16/18/4 22/17/4
f 19/35/2 23/13/2 10/16/2 1/36/2
f 5/37/3 18/38/3 23/13/3 19/35/3
f 18/38/3 6/39/3 20/14/3 23/13/3
f 16/40/7 24/9/7 18/12/7 5/41/7
f 7/42/7 15/43/7 24/9/7 16/40/7
f 15/43/7 8/44/7 17/10/7 24/9/7
f 13/45/2 25/5/2 15/8/2 7/46/2
f 3/47/2 12/48/2 25/5/2 13/45/2
f 12/48/3 4/49/3 14/6/3 25/5/3
f 9/50/1 26/1/1 12/4/1 3/51/1
f 1/52/7 10/53/7 26/1/7 9/50/7
f 10/53/1 2/54/1 11/2/1 26/1/1
