# Blender v2.80 (sub 75) OBJ File: 'TilesNew.blend'
# www.blender.org
mtllib grass.mtl
o 8_grass
v -0.500000 -0.500000 0.500000
v -0.500000 -0.000001 0.500000
v -0.500000 -0.500000 -0.500000
v -0.500000 0.499999 -0.500000
v 0.500000 -0.500000 0.500000
v 0.500000 0.499999 0.500000
v 0.500000 -0.500000 -0.500000
v 0.500000 0.499999 -0.500000
v -0.500000 -0.500000 0.000000
v -0.500000 -0.500001 0.500000
v -0.500000 -0.000001 0.000000
v -0.500000 -0.000001 -0.500000
v 0.000000 -0.500000 -0.500000
v 0.000000 0.499999 -0.500000
v 0.500000 -0.000001 -0.500000
v 0.500000 -0.500000 0.000000
v 0.500000 0.499999 0.000000
v 0.500000 -0.000001 0.500000
v 0.000000 -0.500000 0.500000
v 0.000000 -0.000001 0.500000
v 0.000000 -0.000001 0.000000
v 0.000000 -0.500000 0.000000
v 0.000000 -0.500001 0.500000
v 0.500000 -0.000001 0.000000
v 0.000000 -0.000001 -0.500000
v -0.500000 -0.500001 0.000000
vt 0.500000 -0.500000
vt 0.500000 -0.000599
vt 0.000599 -0.000599
vt 0.000599 -0.500000
vt 1.500000 -0.500000
vt 1.500000 -0.999400
vt 1.999401 -0.999400
vt 1.999401 -0.500000
vt -0.500000 1.500000
vt -0.999400 1.500000
vt -0.999400 1.000599
vt -0.500000 1.000599
vt -0.500000 0.500000
vt -0.999400 0.500000
vt -0.999400 0.000599
vt -0.500000 0.000599
vt -0.500000 -0.500000
vt -0.000599 -0.500000
vt -0.000599 -0.000599
vt -0.500000 -0.000599
vt 0.500000 0.500000
vt 0.000599 0.500000
vt 0.000599 0.000599
vt 0.500000 0.000599
vt 0.999401 0.500000
vt 0.999401 0.000599
vt 0.999401 0.999401
vt 0.500000 0.999401
vt 0.000599 0.999401
vt -0.999400 -0.500000
vt -0.999401 -0.000599
vt -0.999400 -0.999401
vt -0.500000 -0.999401
vt -0.000599 -0.999401
vt -0.000599 0.500000
vt -0.000599 0.000599
vt -0.000599 0.999401
vt -0.500000 0.999401
vt -0.999401 0.999401
vt -0.000599 1.500000
vt -0.000599 1.000599
vt -0.000599 1.999401
vt -0.500000 1.999400
vt -0.999401 1.999400
vt 1.500000 -0.000599
vt 1.999401 -0.000599
vt 1.000599 -0.000599
vt 1.000599 -0.500000
vt 1.000599 -0.999401
vt 0.500000 -0.999400
vt 0.000599 -0.999401
vt 0.999401 -0.999400
vt 0.999401 -0.500000
vt 0.999401 -0.000599
vn -1.0000 0.0000 0.0000
vn 0.0000 0.0000 -1.0000
vn 1.0000 0.0000 0.0000
vn 0.0000 0.0000 1.0000
vn 0.0000 -1.0000 0.0000
vn 0.0000 1.0000 0.0000
vn -0.7071 0.7071 0.0000
vn -0.4082 0.8165 0.4082
vn 0.0000 0.7071 0.7071
usemtl Material.001
s off
f 26/1/1 11/2/1 4/3/1 12/4/1
f 25/5/2 14/6/2 8/7/2 15/8/2
f 24/9/3 17/10/3 6/11/3 18/12/3
f 23/13/4 20/14/4 2/15/4 10/16/4
f 22/17/5 16/18/5 5/19/5 19/20/5
f 21/21/6 11/22/6 2/23/6 20/24/6
f 17/25/7 21/21/7 20/24/7 6/26/7
f 8/27/8 14/28/8 21/21/8 17/25/8
f 14/28/9 4/29/9 11/22/9 21/21/9
f 9/30/5 22/17/5 19/20/5 1/31/5
f 3/32/5 13/33/5 22/17/5 9/30/5
f 13/33/5 7/34/5 16/18/5 22/17/5
f 19/35/2 23/13/2 10/16/2 1/36/2
f 5/37/4 18/38/4 23/13/4 19/35/4
f 18/38/4 6/39/4 20/14/4 23/13/4
f 16/40/3 24/9/3 18/12/3 5/41/3
f 7/42/3 15/43/3 24/9/3 16/40/3
f 15/43/3 8/44/3 17/10/3 24/9/3
f 13/45/2 25/5/2 15/8/2 7/46/2
f 3/47/2 12/48/2 25/5/2 13/45/2
f 12/48/2 4/49/2 14/6/2 25/5/2
f 9/50/1 26/1/1 12/4/1 3/51/1
f 1/52/3 10/53/3 26/1/3 9/50/3
f 10/53/1 2/54/1 11/2/1 26/1/1
